<?xml version="1.0" encoding="utf-8"?>
<!-- Generator: Adobe Illustrator 23.1.1, SVG Export Plug-In . SVG Version: 6.00 Build 0)  -->
<svg version="1.1" id="Capa_1" xmlns="http://www.w3.org/2000/svg" xmlns:xlink="http://www.w3.org/1999/xlink" x="0px" y="0px"
	 viewBox="0 0 208 208" style="enable-background:new 0 0 208 208;" xml:space="preserve">
<style type="text/css">
	.st0{fill:#D6B967;}
</style>
<path class="st0" d="M148.8,145.1c-14,0-26.9-4.6-36.3-13.1c-10.1-9-15.6-22-15.6-36.5c0-9.6,2.1-19.1,6.1-27.6v-0.1v-0.1l8.7-17.9
	L94.2,13.6c-9.6-17.7-9.8-18.2-21.8-1.3c-0.6,0.9-1.2,1.7-1.5,2.7l-45.9,94c-5.4,11.4-8.1,24-8.1,36.6c0,38.9,29.5,62.3,66,62.3
	C119.5,208,149.2,184.4,148.8,145.1C148.9,145.1,148.8,145.1,148.8,145.1z M185.9,72.1l-29.8-61c-7.3-12.7-7.3-12.7-14.4,0L117.4,61
	l0,0l-5.4,11.1c-0.7,1.5-1.4,3-1.8,4.6c-0.5,1.3-0.9,2.6-1.3,4c-1.4,4.8-2,9.9-2,14.9c0,0.8,0,1.5,0.1,2.3c0,0.2,0,0.4,0,0.6
	c0,0.6,0.1,1.2,0.1,1.6c0,0.3,0.1,0.6,0.1,0.9c0.1,0.5,0.1,0.9,0.2,1.4c0,0.3,0.1,0.6,0.2,1s0.1,0.8,0.2,1.2c0.1,0.3,0.2,0.7,0.2,1
	c0.1,0.4,0.2,0.7,0.3,1.1c0.1,0.4,0.2,0.7,0.3,1c0.1,0.3,0.2,0.7,0.3,1c0.1,0.4,0.2,0.7,0.4,1.1c0.1,0.3,0.2,0.6,0.3,0.9
	c0.1,0.4,0.3,0.7,0.4,1.1c0.1,0.3,0.2,0.6,0.3,0.8c0.2,0.4,0.3,0.8,0.5,1.1c0.1,0.2,0.2,0.5,0.3,0.7c0.2,0.4,0.4,0.8,0.6,1.1
	c0.1,0.2,0.2,0.4,0.3,0.7c0.2,0.4,0.5,0.8,0.7,1.1c0.1,0.2,0.2,0.4,0.4,0.6c0.2,0.4,0.5,0.8,0.8,1.1c0.1,0.2,0.2,0.3,0.3,0.5
	c0.3,0.4,0.6,0.8,0.9,1.1c0.1,0.1,0.2,0.3,0.3,0.4c0.3,0.4,0.6,0.8,1,1.1c0.1,0.1,0.2,0.2,0.3,0.4c0.3,0.4,0.7,0.8,1.1,1.1
	c0.1,0.1,0.2,0.2,0.3,0.3c0.4,0.4,0.8,0.7,1.2,1.1c0.1,0.1,0.2,0.2,0.3,0.2c0.4,0.4,0.8,0.7,1.3,1.1c0.1,0.1,0.2,0.1,0.2,0.2
	c0.4,0.4,0.9,0.7,1.4,1.1c0.1,0,0.1,0.1,0.2,0.1c0.5,0.4,1,0.7,1.5,1c0.1,0,0.1,0.1,0.2,0.1c0.5,0.3,1,0.7,1.5,1l0.1,0.1
	c0.5,0.3,1.1,0.6,1.6,0.9h0.1c0.6,0.3,1.2,0.6,1.6,0.9c0,0,0,0,0.1,0c0.6,0.3,1.2,0.6,1.7,0.8l0,0c5.4,2.3,11.6,3.5,18,3.6l0,0l0,0
	c0.2,0,0.4,0,0.6,0c23.3,0,42.2-14.9,42.2-39.9C191.2,87.5,189.3,79.4,185.9,72.1z"/>
</svg>
