<svg xmlns="http://www.w3.org/2000/svg" viewBox="0 0 133.73 181.87"><defs><style>.cls-1{fill:#d6b967;}</style></defs><title>Asset 2</title><g id="Layer_2" data-name="Layer 2"><g id="Layer_3" data-name="Layer 3"><path class="cls-1" d="M65.9,0V41.23s-35.76,42.9-42,53.57c0,0,23,9,42,22.4,0,0,13-14,14.46-21.14,0,0-7.79-9.63-14.46-14,0,0-6.79,4.47-12.53,14.23L43.11,91.46s10-19.26,22.79-30.14a218.14,218.14,0,0,0,31,34.53S81,117.62,66.76,131c0,0-34.53-23.86-66.76-34.32C0,96.69,60.64,39.14,65.9,0Z"/><path class="cls-1" d="M65.9,181.87s31.83-57.35,67.83-86.44c0,0-45-35.58-58.6-49,0,0,8.37,21.35,38.93,49,0,0-27.26,36.42-48.16,53.37Z"/></g></g></svg>