<svg xmlns="http://www.w3.org/2000/svg" viewBox="0 0 135.43 111.98"><defs><style>.cls-1{fill:#d6b967;}</style></defs><title>Asset 2</title><g id="Layer_2" data-name="Layer 2"><g id="Layer_2-2" data-name="Layer 2"><path class="cls-1" d="M135.43,24.28H91.5C76.61,41,78.29,28.39,88.63,64.21l19.49-8.13L96.3,39.93C114.63,42.7,132.25,28.92,135.43,24.28Z"/><polygon class="cls-1" points="87.99 8.46 82.88 0 52.05 0 48.05 7.82 68 32.26 87.99 8.46"/><path class="cls-1" d="M63.87,40.41,51.89,100,68,112l15.82-12.3-12-59.27C68.28,42.93,69.3,46.65,63.87,40.41Z"/><path class="cls-1" d="M43.93,24.28H0S7.67,34.34,26.2,39.93H39.14L27.32,56.08l19.49,8.13,8.62-27.95Z"/></g></g></svg>