<svg xmlns="http://www.w3.org/2000/svg" viewBox="0 0 138.33 133.3"><defs><style>.cls-1{fill:#d6b967;}</style></defs><title>Asset 1</title><g id="Layer_2" data-name="Layer 2"><g id="Layer_2-2" data-name="Layer 2"><polygon class="cls-1" points="99.22 73.21 83.73 56.35 63.53 74.91 84.69 86.56 99.22 73.21"/><polygon class="cls-1" points="33.07 67.51 55.79 70.65 78.06 50.19 66.1 37.16 33.07 67.51"/><path class="cls-1" d="M2.07,133.29,36.87,130a1.94,1.94,0,0,0,1.1-.49L77.21,93.44a1.9,1.9,0,0,0-.27-3L60.23,79.85a1.88,1.88,0,0,0-2.29.2L35.39,100.77a1.91,1.91,0,0,1-2.68-.12l-3.1-3.37a1.9,1.9,0,0,1,.11-2.68L49.5,76.43a1.9,1.9,0,0,0-1-3.27L31,70.42a1.91,1.91,0,0,0-1.57.48L4.91,93.45a1.93,1.93,0,0,0-.6,1.17L0,131.19A1.89,1.89,0,0,0,2.07,133.29Z"/><path class="cls-1" d="M106.62,73.63a1.91,1.91,0,0,0,2.65.17l8.32-7a1.92,1.92,0,0,0,.2-2.75L104.47,49a1.92,1.92,0,0,1,.13-2.69l18-16.62a1.93,1.93,0,0,1,2.77.17l1.43,1.69a1.92,1.92,0,0,0,2.75.18l8.14-7.3a1.92,1.92,0,0,0,.11-2.76L117.88.6a1.93,1.93,0,0,0-2.75,0L107.53,8a1.92,1.92,0,0,0-.12,2.61l1.53,1.82a1.92,1.92,0,0,1-.13,2.63l-17.65,17A1.93,1.93,0,0,1,88.4,32L75.09,17.27a1.93,1.93,0,0,0-2.73-.12l-8.17,7.5a1.93,1.93,0,0,0-.11,2.72Z"/><polygon class="cls-1" points="25.86 20.8 22.72 30.45 38.14 46.57 25.86 20.8"/><polygon class="cls-1" points="44.44 24.29 39.94 29.09 45.14 43.18 44.44 24.29"/><polygon class="cls-1" points="22.61 45.06 16.26 48.17 34.36 54.08 22.61 45.06"/><polygon class="cls-1" points="97.98 96.46 103.76 92.3 84.53 89.57 97.98 96.46"/><polygon class="cls-1" points="98.86 121.21 100.3 111.27 82.34 97.95 98.86 121.21"/><polygon class="cls-1" points="79.97 121.06 83.63 115.54 75.97 102.3 79.97 121.06"/></g></g></svg>