<svg xmlns="http://www.w3.org/2000/svg" viewBox="0 0 444.82 280.37"><defs><style>.cls-1{fill:#d6b967;}</style></defs><title>up-arrow</title><g id="Layer_2" data-name="Layer 2"><g id="Capa_1" data-name="Capa 1"><path class="cls-1" d="M434,196.43,248.39,10.57A36.53,36.53,0,0,0,222.41,0a35,35,0,0,0-25.7,10.57L10.85,196.43A35.46,35.46,0,0,0,0,222.41q0,15.42,10.85,25.7l21.41,21.41Q42.54,280.37,58,280.37t25.69-10.85L222.41,131.05,361.17,269.52a34,34,0,0,0,25.7,10.85,35.46,35.46,0,0,0,26-10.85l21.41-21.42a34.93,34.93,0,0,0,10.57-25.69A35.45,35.45,0,0,0,434,196.43Z"/></g></g></svg>